<svg width="160" height="40" viewBox="0 0 160 40" fill="none" xmlns="http://www.w3.org/2000/svg">
<path d="M20.5663 4.05377C21.2639 4.05377 21.8542 4.23302 22.3372 4.59152C22.8201 4.92244 23.0616 5.33609 23.0616 5.83247C23.0616 6.71493 22.7933 7.43192 22.2567 7.98345C21.72 8.50741 20.9553 8.76939 19.9626 8.76939C18.4064 8.76939 17.2258 8.78318 16.4208 8.81075C16.3672 9.14167 16.1257 10.6308 15.6964 13.2782C15.2134 16.2289 14.9183 18.0352 14.8109 18.697L13.9658 24.1158C13.3755 28.1696 12.9059 31.5615 12.5571 34.2916C13.1206 34.264 13.8853 34.2503 14.8512 34.2503C16.2733 34.2503 17.2392 34.4433 17.749 34.8294C18.2588 35.2154 18.5137 35.7946 18.5137 36.5667C18.5137 37.2837 18.232 37.8904 17.6685 38.3868C17.1319 38.8831 16.3672 39.1313 15.3744 39.1313C14.7036 39.1313 13.6438 39.1038 12.1949 39.0486C10.8533 38.9935 9.96788 38.9659 9.53857 38.9659C7.84819 38.9659 5.99682 39.1175 3.98447 39.4209C3.09903 39.5588 2.46849 39.6277 2.09285 39.6277C1.50256 39.6277 1.00618 39.4622 0.603707 39.1313C0.201236 38.8004 0 38.3178 0 37.6836C0 36.6908 0.429303 35.9186 1.28791 35.3671C2.14651 34.8156 3.35393 34.526 4.91015 34.4984L6.80177 34.4571L6.92251 33.5471C7.56646 29.1348 8.03601 26.0186 8.33116 24.1986L9.2166 18.7797C9.75322 15.5808 10.2362 12.2854 10.6655 8.89349L7.28473 8.93485C6.3188 8.93485 5.64802 8.78318 5.27238 8.47984C4.92357 8.14891 4.74916 7.6939 4.74916 7.11479C4.74916 5.23957 6.0639 4.23302 8.69338 4.09514C9.92763 4.03999 11.4302 4.01241 13.2011 4.01241L20.5663 4.05377Z" fill="#070C0E"/>
<path d="M25.4007 39.09C24.3811 39.09 23.6566 38.5384 23.2273 37.4354C22.8248 36.3323 22.6236 34.5674 22.6236 32.1406C22.6236 28.5557 23.12 25.1499 24.1128 21.9235C24.3542 21.1238 24.7433 20.5446 25.2799 20.1861C25.8434 19.8001 26.6215 19.607 27.6143 19.607C28.1509 19.607 28.5265 19.676 28.7412 19.8139C28.9558 19.9517 29.0632 20.2137 29.0632 20.5998C29.0632 21.041 28.8619 22.0338 28.4594 23.5781C28.1911 24.6811 27.9765 25.6463 27.8155 26.4736C27.6545 27.3009 27.5203 28.3213 27.413 29.5346C28.2985 27.163 29.2912 25.2327 30.3913 23.7435C31.4914 22.2544 32.5647 21.1927 33.6111 20.5584C34.6843 19.9242 35.6637 19.607 36.5491 19.607C38.2932 19.607 39.1652 20.5033 39.1652 22.2958C39.1652 23.3713 38.87 25.3154 38.2798 28.1282C37.77 30.5274 37.5151 32.1131 37.5151 32.8852C37.5151 33.9883 37.9041 34.5398 38.6822 34.5398C39.2189 34.5398 39.8494 34.2089 40.5738 33.5471C41.3251 32.8576 42.3179 31.7546 43.5521 30.2378C43.8741 29.8518 44.2363 29.6587 44.6388 29.6587C44.9876 29.6587 45.2559 29.8242 45.4437 30.1551C45.6584 30.486 45.7657 30.9411 45.7657 31.5202C45.7657 32.6232 45.5108 33.4781 45.001 34.0848C43.8473 35.5464 42.5996 36.7459 41.258 37.6836C39.9433 38.6212 38.4407 39.09 36.7504 39.09C35.382 39.09 34.3489 38.6901 33.6513 37.8904C32.9537 37.0631 32.6049 35.8773 32.6049 34.333C32.6049 33.5608 32.7927 32.182 33.1684 30.1965C33.5172 28.4592 33.6916 27.2596 33.6916 26.5977C33.6916 26.1565 33.544 25.9359 33.2489 25.9359C32.9 25.9359 32.4037 26.4047 31.7597 27.3423C31.1426 28.2523 30.4986 29.4657 29.8279 30.9824C29.1839 32.4991 28.6607 34.0986 28.2582 35.7808C27.9631 37.0769 27.6143 37.9593 27.2118 38.4281C26.8361 38.8694 26.2324 39.09 25.4007 39.09Z" fill="#070C0E"/>
<path d="M49.9954 40C48.6002 40 47.527 39.6691 46.7757 39.0072C46.0512 38.3454 45.689 37.6008 45.689 36.7735C45.689 36.0565 45.9439 35.4361 46.4537 34.9121C46.9635 34.3881 47.7148 34.1262 48.7075 34.1262C49.0563 34.1262 49.4588 34.1675 49.915 34.2503C50.3979 34.3054 50.7601 34.3468 51.0016 34.3744C50.9748 33.6574 50.8138 32.9817 50.5187 32.3475C50.2503 31.7132 49.9015 31.1065 49.4722 30.5274C49.0429 29.9207 48.6405 29.3968 48.2648 28.9555C47.433 30.5826 46.6013 31.9338 45.7695 33.0093C44.9646 34.0848 44.0791 35.1051 43.1132 36.0703C42.6302 36.5667 42.1204 36.8149 41.5838 36.8149C41.1545 36.8149 40.8057 36.6632 40.5374 36.3599C40.2691 36.029 40.1349 35.6291 40.1349 35.1603C40.1349 34.6088 40.3227 34.0986 40.6984 33.6298L41.2216 32.9679C42.6973 31.0927 43.8108 29.5484 44.5621 28.3351C45.0182 27.5353 45.5548 26.4736 46.172 25.1499C46.7891 23.7987 47.3928 22.4061 47.9831 20.9721C48.4929 19.7587 49.5527 19.152 51.1626 19.152C51.9139 19.152 52.4371 19.221 52.7323 19.3588C53.0274 19.4967 53.175 19.7173 53.175 20.0207C53.175 20.1861 53.1213 20.4481 53.014 20.8066C52.9067 21.1651 52.7591 21.5236 52.5713 21.8821C52.0883 22.8749 51.8468 23.716 51.8468 24.4054C51.8468 24.819 51.981 25.274 52.2493 25.7704C52.5444 26.2668 52.9871 26.8873 53.5774 27.6319C54.436 28.7901 55.08 29.7828 55.5093 30.6101C55.9654 31.4099 56.1935 32.2923 56.1935 33.2575C56.1935 33.5333 56.1667 33.9193 56.113 34.4157C57.4277 33.8918 58.9706 32.4991 60.7414 30.2378C61.0634 29.8518 61.4256 29.6587 61.8281 29.6587C62.1769 29.6587 62.4452 29.8242 62.633 30.1551C62.8477 30.486 62.955 30.9411 62.955 31.5202C62.955 32.5681 62.7001 33.423 62.1903 34.0848C60.8488 35.7946 59.5608 36.9666 58.3266 37.6008C57.1192 38.2075 55.6166 38.5384 53.8189 38.5936C52.7457 39.5312 51.4712 40 49.9954 40Z" fill="#070C0E"/>
<path d="M77.6355 29.6587C77.9843 29.6587 78.2526 29.8242 78.4404 30.1551C78.6551 30.486 78.7624 30.9411 78.7624 31.5202C78.7624 32.6232 78.5075 33.4781 77.9977 34.0848C76.844 35.5464 75.5829 36.7459 74.2145 37.6836C72.8461 38.6212 71.2764 39.09 69.5056 39.09C64.0319 39.09 61.2951 35.1327 61.2951 27.2182C61.2951 26.0048 61.3354 24.7777 61.4159 23.5367H59.8462C59.0413 23.5367 58.4913 23.385 58.1961 23.0817C57.9278 22.7784 57.7936 22.2958 57.7936 21.6339C57.7936 20.0896 58.3973 19.3175 59.6048 19.3175H61.8988C62.355 16.284 63.0526 13.5126 63.9917 11.0031C64.9308 8.49362 66.0577 6.49431 67.3725 5.00517C68.714 3.51603 70.1495 2.77146 71.6789 2.77146C72.8058 2.77146 73.6913 3.28163 74.3352 4.30197C74.9792 5.3223 75.3011 6.60462 75.3011 8.14891C75.3011 12.4233 73.5571 16.1462 70.069 19.3175H74.5767C75.006 19.3175 75.3146 19.414 75.5024 19.607C75.6902 19.8001 75.7841 20.1586 75.7841 20.6825C75.7841 22.5853 74.2681 23.5367 71.2362 23.5367H66.326C66.2724 24.9155 66.2455 25.991 66.2455 26.7632C66.2455 29.6312 66.5675 31.6443 67.2115 32.8025C67.8823 33.9607 68.9287 34.5398 70.3508 34.5398C71.5045 34.5398 72.5241 34.1813 73.4095 33.4643C74.295 32.7473 75.3414 31.6718 76.5488 30.2378C76.8708 29.8518 77.233 29.6587 77.6355 29.6587ZM70.5922 6.7425C70.1898 6.7425 69.7336 7.26646 69.2238 8.31437C68.7409 9.33471 68.2713 10.7687 67.8152 12.6163C67.3859 14.4364 67.0237 16.4633 66.7285 18.697C68.3116 17.2906 69.4921 15.7187 70.2703 13.9814C71.0752 12.2165 71.4777 10.617 71.4777 9.18304C71.4777 7.55602 71.1825 6.7425 70.5922 6.7425Z" fill="#070C0E"/>
<path d="M80.4358 39.09C78.7723 39.09 77.4441 38.4695 76.4513 37.2285C75.4586 35.9876 74.9622 34.3606 74.9622 32.3475C74.9622 30.1413 75.4586 28.0593 76.4513 26.1013C77.4441 24.1158 78.7588 22.5302 80.3956 21.3444C82.0591 20.131 83.8166 19.5243 85.6679 19.5243C86.2582 19.5243 86.6473 19.6484 86.8351 19.8966C87.0498 20.1172 87.2242 20.5308 87.3583 21.1375C87.9218 21.0272 88.5121 20.9721 89.1292 20.9721C90.4439 20.9721 91.1013 21.4547 91.1013 22.4199C91.1013 22.999 90.9001 24.3778 90.4976 26.5564C89.8805 29.7277 89.5719 31.9338 89.5719 33.1748C89.5719 33.5884 89.6658 33.9193 89.8536 34.1675C90.0683 34.4157 90.3366 34.5398 90.6586 34.5398C91.1684 34.5398 91.7855 34.2089 92.5099 33.5471C93.2344 32.8576 94.2137 31.7546 95.448 30.2378C95.77 29.8518 96.1322 29.6587 96.5347 29.6587C96.8835 29.6587 97.1518 29.8242 97.3396 30.1551C97.5543 30.486 97.6616 30.9411 97.6616 31.5202C97.6616 32.6232 97.4067 33.4781 96.8969 34.0848C95.7968 35.4912 94.6296 36.677 93.3954 37.6422C92.1611 38.6074 90.9671 39.09 89.8134 39.09C88.9279 39.09 88.1096 38.7866 87.3583 38.1799C86.6339 37.5457 86.0838 36.6908 85.7082 35.6153C84.3129 37.9317 82.5555 39.09 80.4358 39.09ZM81.8847 34.9121C82.475 34.9121 83.0385 34.5536 83.5751 33.8366C84.1117 33.1196 84.5008 32.1682 84.7422 30.9824L86.2314 23.3713C85.1045 23.3988 84.058 23.8401 83.0921 24.6949C82.153 25.5222 81.4017 26.6253 80.8383 28.0041C80.2748 29.383 79.9931 30.8445 79.9931 32.3888C79.9931 33.2437 80.1541 33.878 80.476 34.2916C80.8249 34.7053 81.2944 34.9121 81.8847 34.9121Z" fill="#070C0E"/>
<path d="M109.644 29.6587C109.993 29.6587 110.261 29.8242 110.449 30.1551C110.664 30.486 110.771 30.9411 110.771 31.5202C110.771 32.6232 110.516 33.4781 110.006 34.0848C108.853 35.5464 107.592 36.7459 106.223 37.6836C104.882 38.6212 103.352 39.09 101.635 39.09C99.2739 39.09 97.5164 37.9869 96.3627 35.7808C95.2357 33.5746 94.6723 30.7204 94.6723 27.2182C94.6723 23.8538 95.0882 20.0207 95.9199 15.7187C96.7785 11.4168 98.0262 7.72148 99.6629 4.63288C101.326 1.54429 103.299 0 105.579 0C106.867 0 107.873 0.620476 108.598 1.86143C109.349 3.0748 109.725 4.82592 109.725 7.11479C109.725 10.3964 108.839 14.202 107.068 18.5315C105.298 22.8611 102.896 27.1493 99.8642 31.3961C100.052 32.5267 100.361 33.3402 100.79 33.8366C101.219 34.3054 101.783 34.5398 102.48 34.5398C103.58 34.5398 104.546 34.2227 105.378 33.5884C106.21 32.9266 107.27 31.8097 108.558 30.2378C108.88 29.8518 109.242 29.6587 109.644 29.6587ZM104.694 4.09514C104.077 4.09514 103.379 5.23957 102.601 7.52844C101.823 9.8173 101.139 12.6577 100.548 16.0496C99.9581 19.4416 99.6361 22.6956 99.5824 25.8118C101.487 22.5853 103.003 19.3588 104.13 16.1324C105.257 12.8783 105.821 9.91382 105.821 7.23888C105.821 5.14305 105.445 4.09514 104.694 4.09514Z" fill="#070C0E"/>
<path d="M111.623 39.09C110.416 39.09 109.423 38.5246 108.645 37.394C107.894 36.2358 107.518 34.8018 107.518 33.092C107.518 31.0238 107.652 29.1348 107.921 27.425C108.189 25.6877 108.632 23.8538 109.249 21.9235C109.517 21.0962 109.893 20.5033 110.376 20.1448C110.859 19.7863 111.623 19.607 112.67 19.607C113.26 19.607 113.662 19.7035 113.877 19.8966C114.119 20.0896 114.239 20.3792 114.239 20.7653C114.239 20.9859 114.092 21.7304 113.797 22.999C113.528 24.0193 113.314 24.9431 113.153 25.7704C112.616 28.666 112.348 30.5963 112.348 31.5615C112.348 32.1406 112.415 32.5543 112.549 32.8025C112.683 33.0231 112.898 33.1334 113.193 33.1334C113.595 33.1334 114.092 32.7197 114.682 31.8925C115.299 31.0651 115.943 29.8104 116.614 28.1282C117.312 26.4461 117.982 24.3778 118.626 21.9235C118.841 21.0962 119.163 20.5033 119.592 20.1448C120.048 19.7863 120.719 19.607 121.605 19.607C122.222 19.607 122.651 19.6898 122.892 19.8552C123.134 19.9931 123.255 20.2689 123.255 20.6825C123.255 21.3719 122.919 23.2609 122.248 26.3495C121.497 29.8794 121.122 32.0579 121.122 32.8852C121.122 33.4092 121.229 33.8228 121.444 34.1262C121.658 34.4019 121.94 34.5398 122.289 34.5398C122.825 34.5398 123.456 34.2089 124.18 33.5471C124.932 32.8576 125.924 31.7546 127.159 30.2378C127.481 29.8518 127.843 29.6587 128.245 29.6587C128.594 29.6587 128.862 29.8242 129.05 30.1551C129.265 30.486 129.372 30.9411 129.372 31.5202C129.372 32.6232 129.117 33.4781 128.608 34.0848C127.454 35.5464 126.206 36.7459 124.865 37.6836C123.55 38.6212 122.047 39.09 120.357 39.09C119.069 39.09 118.116 38.5798 117.499 37.5595C116.909 36.5391 116.614 35.1051 116.614 33.2575C116.158 35.1327 115.474 36.5805 114.561 37.6008C113.649 38.5936 112.67 39.09 111.623 39.09Z" fill="#070C0E"/>
<path d="M128.966 39.09C127.947 39.09 127.222 38.5384 126.793 37.4354C126.39 36.3323 126.189 34.5674 126.189 32.1406C126.189 28.5557 126.686 25.1499 127.678 21.9235C127.92 21.1238 128.309 20.5446 128.846 20.1861C129.409 19.8001 130.187 19.607 131.18 19.607C131.717 19.607 132.092 19.676 132.307 19.8139C132.521 19.9517 132.629 20.2137 132.629 20.5998C132.629 21.041 132.428 22.0338 132.025 23.5781C131.757 24.6811 131.542 25.6463 131.381 26.4736C131.22 27.3009 131.086 28.3213 130.979 29.5346C131.864 27.163 132.857 25.2327 133.957 23.7435C135.057 22.2544 136.13 21.1927 137.177 20.5584C138.25 19.9242 139.229 19.607 140.115 19.607C141.859 19.607 142.731 20.5033 142.731 22.2958C142.731 22.6543 142.61 23.5229 142.369 24.9018C142.154 26.0048 142.047 26.6942 142.047 26.97C142.047 27.9352 142.382 28.4178 143.053 28.4178C143.804 28.4178 144.77 27.8111 145.951 26.5977C146.299 26.2392 146.662 26.06 147.037 26.06C147.386 26.06 147.654 26.2254 147.842 26.5564C148.057 26.8597 148.164 27.2734 148.164 27.7973C148.164 28.8176 147.896 29.6174 147.359 30.1965C146.608 30.9962 145.723 31.6856 144.703 32.2647C143.71 32.8163 142.65 33.092 141.523 33.092C140.101 33.092 139.015 32.7198 138.263 31.9752C137.539 31.2306 137.177 30.2241 137.177 28.9555C137.177 28.5419 137.217 28.1282 137.297 27.7146C137.351 27.163 137.378 26.7908 137.378 26.5977C137.378 26.1565 137.23 25.9359 136.935 25.9359C136.533 25.9359 135.996 26.4047 135.325 27.3423C134.681 28.2523 134.037 29.4657 133.393 30.9824C132.75 32.4991 132.226 34.0986 131.824 35.7808C131.529 37.0769 131.18 37.9593 130.777 38.4281C130.402 38.8694 129.798 39.09 128.966 39.09Z" fill="#070C0E"/>
<path d="M149.053 39.09C147.523 39.09 146.276 38.4695 145.31 37.2285C144.371 35.9876 143.901 34.3606 143.901 32.3475C143.901 30.1413 144.398 28.0593 145.39 26.1013C146.383 24.1158 147.698 22.5302 149.335 21.3444C150.998 20.131 152.756 19.5243 154.607 19.5243C155.197 19.5243 155.586 19.6484 155.774 19.8966C155.989 20.1172 156.163 20.5308 156.297 21.1375C156.807 21.0272 157.371 20.9721 157.988 20.9721C158.632 20.9721 159.128 21.1375 159.477 21.4685C159.826 21.7994 160 22.2682 160 22.8749C160 23.5091 159.866 24.6122 159.598 26.1841C159.302 27.8663 159.074 29.4795 158.913 31.0238C158.752 32.5405 158.672 34.2503 158.672 36.153C158.672 37.201 158.457 37.9593 158.028 38.4281C157.625 38.8694 156.955 39.09 156.016 39.09C155.103 39.09 154.419 38.8694 153.963 38.4281C153.534 37.9593 153.319 37.2148 153.319 36.1944L153.359 35.5326C152.527 37.9042 151.092 39.09 149.053 39.09ZM150.622 34.9121C151.374 34.9121 152.058 34.3744 152.675 33.2989C153.292 32.2234 153.842 30.3068 154.325 27.5491L155.09 23.3713C153.99 23.3988 152.97 23.8401 152.031 24.6949C151.092 25.5222 150.341 26.6253 149.777 28.0041C149.214 29.383 148.932 30.8445 148.932 32.3888C148.932 33.2161 149.08 33.8504 149.375 34.2916C149.697 34.7053 150.113 34.9121 150.622 34.9121Z" fill="#070C0E"/>
</svg>
